<svg width="14" height="16" viewBox="0 0 14 16" fill="none" xmlns="http://www.w3.org/2000/svg">
<g clip-path="url(#clip0_88_7)">
<path d="M11.9559 13.927C11.321 14.5711 10.5651 15.086 9.73074 15.4427C8.86829 15.8105 7.93915 16.0002 7.00015 16.0002C6.06115 16.0002 5.13201 15.8105 4.26956 15.4427C3.43516 15.086 2.67926 14.5711 2.04439 13.927C1.40521 13.2814 0.897537 12.52 0.549086 11.6843C-0.181726 9.92803 -0.181726 7.95685 0.549086 6.20058C0.897537 5.36489 1.40521 4.60344 2.04439 3.95784C2.67926 3.3138 3.43516 2.79892 4.26956 2.44216C5.13154 2.07293 6.06099 1.88319 7.00015 1.88472V0L10.8733 2.6888L7.00015 5.37759V3.53005C4.0564 3.53005 1.66159 5.95806 1.66159 8.94318C1.66159 11.9283 4.0564 14.3563 7.00015 14.3563C9.9439 14.3563 12.3387 11.9283 12.3387 8.94318H14.0002C14.002 9.88399 13.8157 10.8158 13.4519 11.685C13.1032 12.5205 12.5953 13.2817 11.9559 13.927Z" fill="black" fill-opacity="0.15"/>
</g>
<defs>
<clipPath id="clip0_88_7">
<rect width="14" height="16" fill="white"/>
</clipPath>
</defs>
</svg>
